<?xml version="1.0" encoding="UTF-8" standalone="no"?>
<svg
   xmlns:dc="http://purl.org/dc/elements/1.1/"
   xmlns:cc="http://creativecommons.org/ns#"
   xmlns:rdf="http://www.w3.org/1999/02/22-rdf-syntax-ns#"
   xmlns:svg="http://www.w3.org/2000/svg"
   xmlns="http://www.w3.org/2000/svg"
   xmlns:sodipodi="http://sodipodi.sourceforge.net/DTD/sodipodi-0.dtd"
   xmlns:inkscape="http://www.inkscape.org/namespaces/inkscape"
   inkscape:version="1.0beta2 (9481f4f, 2020-01-04)"
   sodipodi:docname="bg.svg"
   id="svg8"
   version="1.1"
   viewBox="0 0 508 28.575001"
   height="108"
   width="1920">
  <defs
     id="defs2" />
  <sodipodi:namedview
     inkscape:document-rotation="0"
     inkscape:bbox-paths="true"
     inkscape:bbox-nodes="false"
     inkscape:snap-bbox="true"
     inkscape:snap-page="true"
     units="px"
     showguides="false"
     inkscape:snap-global="true"
     inkscape:window-maximized="1"
     inkscape:window-y="-8"
     inkscape:window-x="1912"
     inkscape:window-height="1017"
     inkscape:window-width="1920"
     inkscape:snap-tangential="false"
     gridtolerance="10"
     showborder="true"
     showgrid="true"
     inkscape:current-layer="layer1"
     inkscape:document-units="px"
     inkscape:cy="7.3166851"
     inkscape:cx="1017.3229"
     inkscape:zoom="0.70710675"
     inkscape:pageshadow="2"
     inkscape:pageopacity="0.0"
     borderopacity="1.0"
     bordercolor="#666666"
     pagecolor="#ffffff"
     id="base">
    <inkscape:grid
       visible="true"
       enabled="true"
       snapvisiblegridlinesonly="true"
       spacingy="13.229167"
       spacingx="13.229167"
       empopacity="0.25098039"
       empcolor="#404040"
       opacity="0.1254902"
       color="#808080"
       id="grid4317"
       type="xygrid" />
  </sodipodi:namedview>
  <metadata
     id="metadata5">
    <rdf:RDF>
      <cc:Work
         rdf:about="">
        <dc:format>image/svg+xml</dc:format>
        <dc:type
           rdf:resource="http://purl.org/dc/dcmitype/StillImage" />
        <dc:title />
      </cc:Work>
    </rdf:RDF>
  </metadata>
  <g
     transform="translate(0,-268.42499)"
     id="layer1"
     inkscape:groupmode="layer"
     inkscape:label="Layer 1">
    <path
       style="fill:#ffbe5f;fill-opacity:1;fill-rule:evenodd;stroke-width:0.393728"
       d="m 0,268.42499 v 19.33497 39.25584 h 508.00003 v -39.25584 -19.33497 z"
       id="path4425"
       inkscape:connector-curvature="0" />
    <rect
       style="fill:#002e48;fill-opacity:1;fill-rule:evenodd;stroke-width:0.26458332"
       id="rect4427"
       width="508"
       height="8.7312498"
       x="3.7343751e-005"
       y="268.42508" />
    <rect
       y="324.85565"
       x="0.00053999998"
       height="2.1166668"
       width="508"
       id="rect4504"
       style="fill:#002e48;fill-opacity:1;fill-rule:evenodd;stroke-width:0.264583" />
    <path
       inkscape:connector-curvature="0"
       d="m 436.66775,278.08693 c 2.18815,0.71415 5.09732,1.86142 7.0922,2.62206 2.16931,0.82716 4.3078,1.71971 6.41205,2.66703 2.10422,0.94732 4.17452,1.94947 6.2062,2.9962 2.03167,1.04674 4.02499,2.13797 5.97656,3.26336 1.95157,1.12539 3.86114,2.2847 5.72508,3.46801 0.91867,0.5832 1.79058,1.18615 2.68654,1.77973 0.92196,0.61078 1.86727,1.21247 2.76432,1.83142 1.76882,1.22048 3.48818,2.45436 5.15428,3.69125 1.66615,1.23689 3.27901,2.47678 4.83496,3.70933 1.55598,1.23255 3.05501,2.45743 4.49329,3.66489 1.43826,1.20746 2.81576,2.39733 4.12884,3.55896 2.6261,2.32326 4.99446,4.53404 7.07461,6.54947 2.08011,2.01542 3.87212,3.83533 5.34611,5.37693 1.47402,1.54159 2.63001,2.80498 3.43777,3.70675 v -31.55983 -0.24443 -0.28474 -16.79639 z"
       style="fill:#002e48;fill-opacity:1;fill-rule:evenodd;stroke-width:0.265011"
       id="path939" />
    <path
       inkscape:connector-curvature="0"
       d="m 343.99554,268.42499 c 5.38474,0.35102 10.9035,0.71785 16.95758,1.18856 7.45445,0.5796 15.34371,1.25548 23.48985,2.04225 5.37383,0.51901 10.85715,1.08626 16.39868,1.70532 5.54154,0.61906 11.14128,1.28967 16.74708,2.01693 5.60579,0.72726 11.21778,1.51076 16.78439,2.35438 5.56666,0.84362 11.0882,1.74746 16.51225,2.7156 2.71202,0.48406 5.39952,0.98448 8.0565,1.5012 2.65705,0.51671 5.28296,1.05004 7.87196,1.60042 2.58899,0.5504 5.14093,1.11765 7.64902,1.70274 2.50808,0.58508 4.97243,1.18787 7.38668,1.80867 2.41428,0.6208 4.7785,1.25967 7.086,1.9172 2.30752,0.65753 4.55861,1.33354 6.74644,2.02881 2.18781,0.69528 4.31223,1.41001 6.36743,2.14406 1.57427,0.56226 3.06832,1.1467 4.55811,1.73219 0.45512,0.17887 0.94562,0.34809 1.39252,0.52917 v -0.52917 -26.45833 z"
       style="fill:#0c89e9;fill-opacity:1;fill-rule:evenodd;stroke-width:0.265011"
       id="path958" />
    <path
       inkscape:connector-curvature="0"
       d="m 344.52524,326.97232 h 163.4753 v -2.11667 H 309.21061 c 4.40145,0.26827 10.63702,0.68981 14.25959,0.87178 4.98525,0.25043 10.75968,0.56915 17.14521,0.96997 1.19957,0.0753 2.6683,0.19372 3.90983,0.27492 z"
       style="fill:#0c89e9;fill-opacity:1;fill-rule:evenodd;stroke-width:0.264583"
       id="path931" />
  </g>
</svg>
